<svg width="150" height="150" viewBox="0 0 150 150" fill="none" xmlns="http://www.w3.org/2000/svg">
<g clip-path="url(#clip0)">
<path d="M111.605 101.789C111.605 114.077 86.625 124.05 55.8047 124.05C24.9891 124.05 0 114.077 0 101.789C0 89.4844 24.9891 79.5188 55.8047 79.5188C86.625 79.5188 111.605 89.4844 111.605 101.789" fill="#A6A8AB"/>
<path d="M93.3328 127.416C124.15 127.416 149.133 117.449 149.133 105.155C149.133 92.8603 124.15 82.8938 93.3328 82.8938C62.5153 82.8938 37.5328 92.8603 37.5328 105.155C37.5328 117.449 62.5153 127.416 93.3328 127.416Z" fill="#A6A8AB"/>
<path d="M76.5867 119.789C52.9852 119.789 31.8211 114.642 17.4774 106.5C17.3344 107.599 17.2477 108.71 17.2477 109.838C17.2477 131.095 43.4016 148.329 75.661 148.329C107.925 148.329 134.079 131.093 134.079 109.838C134.079 109.027 134.032 108.23 133.95 107.435C119.674 115.031 99.2531 119.789 76.582 119.789" fill="#D0D2D3"/>
<path d="M46.5633 116.848C35.3015 114.537 25.3523 110.979 17.482 106.507C17.339 107.606 17.2523 108.717 17.2523 109.845C17.2523 131.102 43.4062 148.336 75.6656 148.336C78.2086 148.336 80.707 148.214 83.1703 148.008C63.5812 142.927 49.1719 131.095 46.5633 116.848" fill="#B6B6B7"/>
<path d="M140.906 91.2609C140.906 105.63 111.694 117.277 75.6797 117.277C39.654 117.277 10.4485 105.614 10.4485 91.2609C10.4485 76.8867 39.654 65.2219 75.6797 65.2219C111.694 65.2219 140.906 76.8773 140.906 91.2609Z" fill="#D0D2D3"/>
<path d="M75.2109 112.521C106.03 112.521 131.013 102.551 131.013 90.2531C131.013 77.9548 106.03 67.9851 75.2109 67.9851C44.3921 67.9851 19.4086 77.9548 19.4086 90.2531C19.4086 102.551 44.3921 112.521 75.2109 112.521Z" fill="#A6A8AB"/>
<path d="M32.25 72.5367C28.2094 76.1062 23.9742 79.4133 19.7836 82.8023C16.0547 85.807 20.8172 91.3289 24.7266 89.1984C28.3734 87.2226 31.9922 85.2844 35.8523 83.7515C34.3172 81.75 32.775 79.7555 31.2422 77.7539C30.2305 79.3938 29.0968 80.9552 27.8508 82.425C25.1672 85.8047 28.5867 91.5211 32.7938 88.8258C35.5781 87.0492 38.318 85.2726 41.2219 83.6976L35.6461 78.1265C34.65 79.7906 33.8719 81.4805 33.0773 83.2547C31.5891 86.5453 34.9664 91.4883 38.6531 88.8305C41.6484 86.6789 44.482 84.4851 47.175 81.9586C50.7938 78.5859 46.2188 73.7555 42.2367 75.5578C42.0117 75.8015 41.8008 76.0453 41.5852 76.2914C41.0977 78.1547 40.6078 80.0133 40.125 81.8672C41.736 80.8479 43.5127 80.1182 45.375 79.7109C49.3758 78.5531 49.1602 73.1109 45.375 71.8523C45.007 71.7281 44.6438 71.6039 44.2781 71.4844V79.3476C46.0969 78.6609 47.8734 78.2578 49.7813 77.8828C48.7289 75.3961 47.6859 72.907 46.6359 70.4273C40.0242 73.6945 19.0711 78.9258 26.4844 90.3023C27.6516 88.2469 28.8281 86.2101 30.0047 84.1617C29.2664 84.089 28.5305 84.0164 27.7922 83.939C23.25 82.9781 20.6906 88.8469 24.6492 91.3969C26.032 92.3883 27.4969 93.2484 29.0414 93.9656C29.7305 91.4297 30.4148 88.8984 31.0992 86.3625C29.3859 86.4726 27.682 86.5922 25.9734 86.7305C20.6953 87.1312 20.7539 94.4039 25.9734 94.8844C31.3617 95.3742 38.3719 96.839 43.4039 94.0547C45.0047 93.1594 45.9023 92.3719 47.0977 91.0547C47.9391 90.1242 48.825 89.2453 49.725 88.3734C53.8125 84.4289 48.6328 89.5312 48.6492 86.407L54.7875 82.889C54.1711 82.5234 53.5617 82.1508 52.95 81.7875C52.2609 84.3187 51.5813 86.85 50.8875 89.3859C52.2844 89.9367 53.6719 90.4851 55.0617 91.0242L57.1242 83.4258C54.9316 83.1703 52.7168 83.1703 50.5242 83.4258C47.4141 83.775 45.4922 86.6133 47.0016 89.564C49.6805 94.7883 55.7789 96.8109 61.1812 98.0273C66.3023 99.1992 68.4703 91.3359 63.3492 90.1664C60.157 89.4422 55.7062 88.6687 54.0633 85.4554C52.882 87.4922 51.7195 89.5383 50.5359 91.5867C52.7289 91.3383 54.9429 91.3383 57.1359 91.5867C61.4227 92.0648 62.3461 85.9711 59.1937 83.9859C56.4562 82.2703 54.0961 81.5883 50.8969 81.232C46.6758 80.7586 45.6117 86.8875 48.8438 88.8234L50.6766 89.9273C53.3555 91.5398 56.7914 89.4656 56.8102 86.4047C56.857 80.1633 52.3828 76.7765 46.7695 80.318C44.4445 81.7922 42.5156 83.9765 40.6969 85.9992C37.8656 89.1375 29.7328 87.0656 25.9852 86.7281V94.882C27.693 94.7526 29.4016 94.6339 31.1109 94.5258C34.9008 94.2703 37.0125 88.9219 33.1734 86.925C31.6309 86.2092 30.1595 85.3492 28.7789 84.3562C27.7266 86.8453 26.6789 89.325 25.643 91.8117C27.0817 92.1236 28.547 92.2971 30.0188 92.3297C33.0141 92.3953 35.2195 88.7672 33.5344 86.1867C32.5102 84.607 48.8133 78.4359 50.7703 77.475C55.1438 75.3211 51.9234 69.1711 47.6227 70.0219C45.7266 70.3945 43.95 70.807 42.1242 71.4867C38.3648 72.8976 38.1422 78.0211 42.1242 79.35C42.4969 79.4719 42.8578 79.5961 43.2258 79.7109V71.8523C40.582 72.6305 38.3297 73.3265 36.0188 74.8242C34.3406 75.9211 33.157 78.5859 34.5586 80.4047C37.9336 84.7992 41.4609 84.832 46.3711 82.6008C44.7211 80.4726 43.0711 78.3351 41.4281 76.2C39.2604 78.2109 36.965 80.0796 34.5563 81.7945L40.1367 87.375C40.9359 85.6031 41.7023 83.9086 42.7055 82.2445C44.8641 78.6469 40.643 74.7562 37.1203 76.664C34.2164 78.2437 31.4789 80.025 28.6969 81.7945L33.6305 88.1953C35.2664 86.1281 36.8555 84.0726 38.3063 81.8719C40.1672 79.0476 37.0477 74.5476 33.6961 75.8836C29.1773 77.6883 24.9 79.8398 20.6273 82.1508C22.2727 84.2929 23.925 86.4328 25.575 88.5656C29.7586 85.1859 33.9938 81.8672 38.032 78.3023C41.9812 74.8195 36.1898 69.082 32.2617 72.5414" fill="#00A551"/>
<path d="M43.2468 94.4297C45.7359 97.1812 48.7593 98.2148 52.3687 98.775C52.7296 96.1055 53.0906 93.4336 53.4562 90.7641C52.6836 90.7353 51.9271 90.5351 51.2413 90.1781C50.8734 92.8523 50.5195 95.5219 50.1585 98.1984C55.1695 98.2008 64.5046 98.7609 66.0656 92.1844C67.9335 84.3211 62.0835 77.9109 55.2749 75.1594L54.1851 83.168H54.921C59.7234 83.168 60.2015 76.6734 56.0038 75.1594C53.5687 74.2781 51.232 73.4508 48.9257 72.2742C48.2367 74.8008 47.557 77.3367 46.8632 79.875C49.146 79.9922 58.3546 82.3195 57.5953 85.6969C57.157 87.6281 57.907 89.182 59.4632 90.307C64.5515 93.9562 69.5718 98.1492 75.8296 99.5133C80.4609 100.526 82.7812 94.6828 78.9726 92.0602C78.2255 91.5506 77.4019 91.1637 76.5328 90.9141V98.775L79.0992 98.0414C84.1406 96.6047 81.989 88.7273 76.9265 90.1805C76.0757 90.4312 75.2179 90.6797 74.3578 90.9141C70.4062 92.0461 70.5492 97.5797 74.3578 98.775C74.5265 98.8852 74.6929 98.9953 74.8523 99.1055C75.8999 96.6141 76.9523 94.1344 77.9976 91.6477C72.5015 90.4406 68.0507 86.4703 63.5859 83.2664L65.4562 87.8742C67.7343 77.7398 55.1578 72.1594 46.8609 71.7141C42.8601 71.5031 41.2148 77.4891 44.8031 79.3172C47.7328 80.8008 50.7609 81.907 53.8429 83.0227C54.2015 80.3508 54.5601 77.6836 54.9281 75.007H54.1921C49.2773 75.007 49.0523 81.3867 53.1093 83.0227C54.8367 83.7211 60.9257 88.8891 56.9765 89.8523C54.8601 90.3727 52.3288 90.0516 50.1656 90.0375C45.2179 90.0352 45.0632 96.3891 49.0781 98.0414C50.4937 98.632 51.9492 98.775 53.4656 98.9227C58.0218 99.3797 59.0788 91.6219 54.5484 90.9141C52.3663 90.5719 50.632 90.4453 49.0171 88.6711C45.4828 84.7617 39.7288 90.5437 43.2562 94.4297" fill="#00A551"/>
<path d="M122.297 91.364C118.795 92.8734 115.284 94.3359 111.834 95.9601C108.206 97.6758 109.92 103.87 113.892 103.563C117.811 103.252 121.573 102.401 125.437 101.733L121.472 94.9289C116.557 99.2625 107.072 98.3226 100.934 98.332C96.4195 98.3367 95.2429 105.41 99.8437 106.343C104.055 107.189 107.834 107.114 112.048 106.343C115.936 105.623 115.985 99.1476 112.048 98.4797C104.287 97.1555 96.682 97.8797 88.8679 98.2734C80.4867 98.7094 72.082 97.2469 63.7008 97.0781C58.364 96.9773 58.5656 104.745 63.7008 105.232C68.3531 105.675 72.7242 105.799 77.3297 105.089C81.2273 104.494 81.2648 97.7789 77.3297 97.2281C68.7445 96.0141 55.2726 93.8297 48.2719 100.364C49.9172 100.148 51.5648 99.9422 53.2172 99.7242C49.1883 98.0156 45.5648 95.9906 41.1187 95.8289C38.2523 95.7234 35.7211 99.4687 37.6008 101.96C38.4328 103.08 39.2742 104.189 40.0992 105.305C41.9648 103.446 43.8234 101.592 45.6797 99.7242C39.6211 96.4336 34.4812 92.6695 27.3164 92.8945C23.3554 93.0234 21.6234 98.4445 25.2586 100.493C38.639 108.052 54.6093 112.109 69.9773 111.93C75.2508 111.865 75.2179 103.971 69.9773 103.777C67.1812 103.662 64.4015 103.46 61.6031 103.355C57.0562 103.177 55.9804 110.487 60.525 111.366C72.8718 113.756 85.057 112.781 97.4086 110.951C102.061 110.257 100.791 102.935 96.3281 102.935H92.9742V111.089C98.1773 111.075 104.07 111.267 108.79 108.668C110.573 107.688 120.237 97.9781 121.034 98.4094C122.998 99.4617 125.463 98.9109 126.614 96.9445C127.598 95.2594 128.66 93.6562 129.539 91.9172H122.508C123.588 93.1594 124.425 94.5586 125.016 96.1008C127.148 94.4531 129.288 92.8101 131.421 91.1625C128.609 87.7008 125.381 85.8398 121.261 84.2578C119.484 83.5781 117.6 84.7172 116.651 86.1305C115.927 87.0211 115.378 87.9914 114.975 89.0625C117.112 88.7883 119.243 88.5094 121.376 88.2328C118.451 85.6781 116.346 82.5797 113.025 80.4867C109.68 78.3891 105.042 82.6758 107.445 86.0625C108.316 87.2953 109.13 88.3055 110.177 89.4C111.497 87.1336 112.819 84.8578 114.145 82.589C110.212 81.7289 106.643 80.4914 102.595 80.3555C100.008 80.2594 97.8844 83.0391 98.6625 85.5094C99.1078 87.0844 99.6656 88.6219 100.334 90.1172L103.186 85.0922C102.162 85.4719 101.405 85.8844 100.556 86.5617C99.1219 87.7078 99.1031 90.0305 99.914 91.5C100.556 92.5758 101.114 93.6937 101.587 94.8516C103.12 92.85 104.665 90.8555 106.191 88.8586C101.552 88.057 98.2898 83.0461 94.8937 80.0836C91.5914 77.2125 88.0453 75.8742 83.782 75.3258C79.0945 74.7305 78.4359 82.1016 82.6992 83.3344C88.3031 84.9562 93.8648 85.4953 99.6797 85.5726C105 85.65 104.85 77.8125 99.6797 77.4164C91.3734 76.7836 89.6929 81.7101 84.6656 86.9789L91.6242 89.8617C91.2961 86.7398 97.664 84.9609 99.7476 84.2367C104.92 82.4109 109.109 83.2664 113.927 85.8539C118.566 88.3383 122.679 81.2976 118.045 78.7992C110.412 74.7023 103.992 74.0883 95.8711 76.9547C90.3117 78.9117 82.7367 82.9055 83.4726 89.8476C83.8242 93.1594 87.757 95.5312 90.4312 92.7281C93.4734 89.5453 94.5656 85.1648 99.682 85.5539V77.3976C94.5961 77.332 89.7703 76.875 84.8695 75.457L83.7844 83.468C92.2265 84.5461 95.4797 95.2336 104.037 96.7055C107.702 97.3336 110.184 94.0922 108.642 90.7078C108.173 89.5526 107.614 88.4359 106.971 87.368C106.753 89.0086 106.542 90.6562 106.334 92.3039C106.005 92.5148 105.691 92.7258 105.375 92.9344C107.266 92.2453 109.099 90.1008 108.218 87.9187C107.54 86.4301 106.981 84.8901 106.547 83.3133C105.232 85.0289 103.927 86.7562 102.609 88.4742C105.858 88.5914 108.853 89.7375 111.98 90.4172C115.936 91.2844 118.861 86.6461 115.948 83.6062C115.462 83.0531 114.982 82.4859 114.502 81.9187C112.634 83.7797 110.78 85.6406 108.916 87.5015C111.558 89.1539 113.29 91.9383 115.617 93.975C117.429 95.5547 120.844 95.6859 122.016 93.15C122.419 92.0859 122.977 91.1062 123.696 90.2203C122.163 90.8531 120.623 91.4695 119.091 92.1023C121.971 93.2016 123.738 94.5469 125.658 96.9C128.745 100.704 133.966 95.8687 132.056 91.9594C131.471 90.4302 130.621 89.0157 129.546 87.7805C127.88 85.493 124.029 84.8062 122.515 87.7805C121.627 89.5172 120.579 91.125 119.59 92.8101C121.444 92.3156 123.312 91.8351 125.17 91.3453C120.609 88.8914 116.981 89.843 113.381 93.4359C110.864 95.932 109.359 98.5828 106.369 100.695C102.591 103.35 97.3828 102.907 93.0047 102.916C87.75 102.926 87.75 111.07 93.0047 111.07H96.3562L95.2711 103.064C84.4406 104.667 73.5562 105.567 62.7258 103.477C62.3578 106.144 61.9992 108.818 61.6312 111.483C64.4297 111.598 67.207 111.799 70.0054 111.912V103.758C56.0695 103.912 41.5406 100.289 29.3953 93.4359C28.7156 95.9766 28.0265 98.5055 27.3422 101.034C32.8968 100.863 36.9562 104.229 41.5945 106.755C44.8922 108.546 49.7812 104.655 47.1703 101.173C46.3383 100.052 45.5039 98.9414 44.6625 97.8211C43.4859 99.8695 42.3187 101.916 41.1445 103.957C44.0437 104.062 46.5281 105.647 49.1226 106.748C50.8851 107.496 52.582 107.487 54.0609 106.113C58.2093 102.246 70.0781 104.355 75.2015 105.07V97.2094C71.3625 97.7859 67.5773 97.4203 63.7359 97.0594V105.213C71.2828 105.361 78.7758 106.329 86.3273 106.467C94.2375 106.617 102.019 104.974 109.905 106.324V98.4609C107.322 99.1055 104.621 99.1055 102.037 98.4609L100.957 106.467C109.68 106.458 120.319 106.802 127.259 100.671C130.627 97.718 126.945 93.2344 123.298 93.8601C120.166 94.3875 117.101 95.1375 113.923 95.3883C114.605 97.9242 115.296 100.446 115.983 102.982C119.426 101.365 122.941 99.893 126.438 98.3906C131.25 96.3117 127.087 89.2898 122.323 91.3594" fill="#F6921E"/>
<path d="M70.7813 112.688C75.9258 112.945 81.0657 112.945 86.2102 112.688C90.5555 112.46 92.0579 105.337 87.2977 104.674C81.4008 103.854 75.5813 104.21 69.661 104.243C70.0196 106.92 70.3876 109.58 70.7462 112.254C74.9907 111.633 78.9962 111.105 82.9407 109.32C87.729 107.145 83.5758 100.127 78.8251 102.288C75.661 103.718 71.9719 103.905 68.5758 104.398C63.9376 105.082 65.1727 112.441 69.6587 112.416C74.7891 112.371 80.0297 111.834 85.1344 112.542C85.4907 109.873 85.8516 107.205 86.2126 104.531C81.073 104.796 75.9232 104.796 70.7837 104.531C65.5219 104.266 65.5501 112.43 70.7837 112.697" fill="#A87C4F"/>
<path d="M108.961 88.9664C102.309 90.9586 95.6602 92.1516 88.7204 92.4656C84.3586 92.6625 82.8938 99.8344 87.6352 100.477C88.9214 100.666 90.2244 100.715 91.5211 100.622C95.8477 100.329 97.4086 93.3844 92.6157 92.6203C92.3068 92.5667 91.9974 92.5159 91.6876 92.468C92.6344 93.4125 93.593 94.3664 94.5352 95.3226C94.4274 96.8109 94.4626 96.825 94.6196 95.3648C94.5525 94.7418 94.4603 94.1218 94.343 93.5062C93.4336 88.3289 85.5868 90.5273 86.4797 95.6672C86.1258 93.6351 86.5125 97.0664 86.6766 97.4883C87.3938 99.3 88.5305 100.172 90.4454 100.479C90.8063 97.807 91.1719 95.1398 91.5235 92.468C90.9501 92.4994 90.3779 92.5502 89.8079 92.6203C89.4516 95.2851 89.0883 97.9547 88.7227 100.622C96.3205 100.286 103.847 99.0102 111.131 96.8226C116.156 95.3297 114.007 87.4547 108.961 88.9664" fill="#A87C4F"/>
<path d="M70.5001 76.2211C77.2431 76.2023 83.9743 76.0008 90.7033 76.5C90.34 73.8305 89.9814 71.1563 89.6157 68.4914C87.0306 69.1125 84.3728 68.9906 81.722 69.1898C77.2267 69.5203 76.0665 75.8602 80.6439 77.1984C82.9736 77.8852 85.5587 78.082 87.8087 79.0289C88.1298 76.5445 88.4439 74.0578 88.779 71.5781C84.1618 73.2867 79.5142 74.8313 74.754 76.0664C71.8782 76.8117 70.6665 80.8172 72.954 82.882C73.9736 83.8031 74.8642 84.7125 76.0243 85.4813V78.45C75.4618 78.8203 74.9017 79.1953 74.3415 79.5727C72.3072 80.9274 71.4025 84.1758 73.5142 85.9805C74.7236 87.0164 75.7384 88.0758 77.1423 88.8609L78.1173 81.3984C77.0908 81.8391 76.2986 82.2516 75.4759 83.0133C73.6665 84.6727 73.9407 88.3359 76.2986 89.4164C77.1986 89.8242 78.0048 90.1805 78.9658 90.382C84.0939 91.4484 86.2759 83.5922 81.1361 82.5234C80.8923 82.4719 80.6579 82.4203 80.4212 82.3758L81.2439 88.7742C80.9298 88.9383 80.6087 89.1047 80.29 89.2664C83.3251 87.9961 84.6681 83.7023 81.2626 81.8063C80.4845 81.3703 79.9595 80.7797 79.2845 80.1984C79.0032 82.3336 78.7431 84.4664 78.4571 86.5969C79.022 86.2336 79.5798 85.8586 80.1423 85.4789C82.7556 83.7399 82.7697 80.175 80.1423 78.4242C79.6847 77.9686 79.2126 77.5277 78.7267 77.1023C78.1197 79.3734 77.522 81.6445 76.9197 83.918C81.6798 82.6875 86.3415 81.1336 90.9447 79.4227C93.8111 78.3703 95.529 73.4977 91.9197 71.9766C88.9454 70.718 85.8868 70.2211 82.8095 69.3164C82.4509 71.9906 82.0806 74.6625 81.7197 77.3273C85.1157 77.0836 88.4579 77.1445 91.7884 76.3406C96.4759 75.2156 95.1001 68.6555 90.7009 68.332C83.972 67.8328 77.2407 68.0297 70.4978 68.0484C65.2431 68.0813 65.2431 76.2305 70.4978 76.2211" fill="#A87C4F"/>
<path d="M99.9939 77.1937C106.437 79.2351 112.495 82.1601 118.376 85.4836C119.419 82.9992 120.467 80.5125 121.514 78.0305C119.853 77.5734 118.219 77.4937 116.506 77.3203C114.685 77.1281 113.074 78.7148 112.57 80.3086C113.313 77.9156 116.112 78.0141 114.169 78.0703C113.128 78.0726 112.078 77.9648 111.054 77.8734C109.224 77.7 107.403 77.3836 105.565 77.3203C101.949 77.1914 100.245 81.8297 102.682 84.2812C104.571 86.1867 106.587 86.7469 109.207 86.8734C114.474 87.1523 114.443 78.9984 109.207 78.7195C108.963 78.6469 108.703 78.5812 108.455 78.5109C107.489 80.8289 106.535 83.1492 105.57 85.4766C110.039 85.6242 118.563 88.4976 120.438 82.4789C119.128 83.482 117.823 84.4781 116.51 85.4766C117.467 85.5305 118.416 85.6734 119.356 85.8891C123.806 87.1148 126.551 80.7305 122.492 78.4336C116.018 74.7726 109.266 71.5711 102.167 69.3258C97.1228 67.7414 94.99 75.6234 99.9939 77.1937" fill="#A87C4F"/>
<path d="M122.883 92.25C121.995 93.2555 121.066 94.1953 120.04 95.0555C120.291 94.882 120.213 94.9359 119.813 95.2289C119.571 95.4 119.327 95.5594 119.081 95.7234C118.829 95.879 118.573 96.0283 118.313 96.1711C118.381 96.1242 117.091 96.7734 117.673 96.5273C115.624 97.3828 114.183 99.1922 114.82 101.545C115.355 103.477 117.785 105.255 119.838 104.393C123.305 102.942 126.157 100.828 128.66 98.0156C130.134 96.3539 130.291 93.8859 128.66 92.2476C127.149 90.7547 124.357 90.5883 122.883 92.2476" fill="#A87C4F"/>
<path d="M37.404 102.021C39.5626 102.023 41.7024 102.314 43.8493 102.588C46.0618 102.863 47.9227 100.519 47.9227 98.5102C47.9227 96.0703 46.0524 94.7086 43.8493 94.4274C41.7024 94.1625 39.5626 93.8883 37.404 93.8672C35.1704 93.8485 33.3212 95.7422 33.3212 97.9524C33.3212 100.188 35.1704 102.002 37.404 102.021Z" fill="#A87C4F"/>
<path d="M54.7195 12.3821C42.3187 18.1149 37.1414 28.5703 42.9539 40.2094C46.4226 47.1539 51.9375 53.1352 56.4234 59.5664C62.1469 67.7883 62.0367 75.3094 57.4898 83.9953C55.718 87.368 61.3758 90.3235 63.157 86.9297C69.5836 74.6789 68.2242 65.0297 60.1172 53.836C51.4078 41.8055 37.8562 26.7258 58.0359 17.4024C61.7976 15.6633 58.4719 10.643 54.7219 12.375" fill="#E6E7E8"/>
<path d="M76.2305 93.7129C82.0664 87.1902 83.4024 80.5926 80.4235 72.6754C77.161 64.0129 70.7203 56.9699 70.6149 47.473C70.5235 39.6098 74.9227 31.948 77.9836 24.7457C81.1242 17.3465 82.6946 9.94257 81.0094 2.10038C80.2266 -1.57696 73.9078 -0.0207134 74.6742 3.64491C77.686 17.7777 66.5391 30.0566 64.3899 43.6293C63.3938 49.9504 64.7531 56.1332 67.6781 61.9199C72.2766 71.0066 79.9242 80.2762 71.5805 89.6019C68.9836 92.5105 73.5985 96.6332 76.2305 93.7082" fill="#E6E7E8"/>
<path d="M96.4687 84.6797C96.3913 78.293 95.4421 72.457 93.0984 66.4125C91.9968 63.5906 90.1195 61.1156 89.0976 58.2539C88.071 55.3875 90.1124 51.9938 91.5913 49.6055C96.5577 41.6039 101.791 35.3297 96.4546 26.2242C94.4929 22.8914 88.8304 25.8328 90.7663 29.1516C95.9788 38.032 85.0265 45.2227 82.7554 53.5289C81.5788 57.8086 83.278 61.6383 85.378 65.4328C88.7718 71.5969 89.8054 77.8781 89.8827 84.6797C89.9437 88.4273 96.5156 88.4273 96.4687 84.6797Z" fill="#E6E7E8"/>
</g>
<defs>
<clipPath id="clip0">
<rect width="150" height="150" fill="white"/>
</clipPath>
</defs>
</svg>
